<svg xmlns="http://www.w3.org/2000/svg" class="svg-logo" width="2400" height="2400" viewBox="0 0 630 430" style="height: auto;"><rect width="630" height="630" y="-100" rx="0" ry="0" fill="transparent" fill-opacity="0"></rect><g data-element="wrapper" transform="translate(72.2426143354645 49.308447321249446) scale(0.7706583298578495)"><g data-element="container" transform="translate(132.68835616438358 32.68835616438358) scale(0.6077054794520548)"><g ><path id="fill_x5F_1" d="M300,47.951c139.203,0,252.049,112.846,252.049,252.049S439.203,552.049,300,552.049
	S47.951,439.203,47.951,300S160.797,47.951,300,47.951z" fill="transparent" fill-opacity="0"></path>
<path id="frame_x5F_1_32_" d="M512.132,87.868C455.47,31.205,380.133,0,300,0S144.53,31.205,87.868,87.868S0,219.867,0,300
	s31.206,155.47,87.868,212.132S219.867,600,300,600s155.47-31.206,212.132-87.868S600,380.133,600,300
	S568.794,144.53,512.132,87.868z M300,571.415C150.341,571.415,28.585,449.659,28.585,300S150.341,28.585,300,28.585
	S571.415,150.341,571.415,300S449.659,571.415,300,571.415z M482.151,117.849C433.496,69.194,368.807,42.399,300,42.399
	s-133.496,26.795-182.151,75.449S42.4,231.192,42.4,300s26.795,133.497,75.449,182.151s113.344,75.45,182.151,75.45
	s133.496-26.795,182.151-75.449S557.6,368.808,557.6,300S530.805,166.503,482.151,117.849z M300,542.355
	c-133.635,0-242.355-108.72-242.355-242.355S166.365,57.645,300,57.645S542.355,166.365,542.355,300S433.635,542.355,300,542.355z" fill="#000000" fill-opacity="1"></path></g></g><g ><g data-element="icon" transform="scale(0.19393990328392288) translate(1324.2142342696484 492.1619825212462)"><path id="color_x5F_1_67_" d="M300,412.5c-2.763,0-5.526-0.913-7.809-2.739    c-45.242-36.193-76.187-70.414-94.604-104.616C182.178,276.526,175,247.087,175,212.5c0-68.925,56.075-125,125-125    s125,56.075,125,125c0,34.587-7.178,64.026-22.588,92.645c-18.417,34.202-49.361,68.422-94.604,104.616    C305.526,411.587,302.763,412.5,300,412.5z M300,112.5c-55.141,0-100,44.86-100,100c0,30.702,6.045,55.619,19.6,80.792    c15.744,29.238,42.089,58.938,80.4,90.599c38.312-31.66,64.656-61.36,80.4-90.599c13.555-25.173,19.6-50.091,19.6-80.792    C400,157.36,355.141,112.5,300,112.5z M300,162.5c27.57,0,50,22.43,50,50s-22.43,50-50,50s-50-22.43-50-50S272.43,162.5,300,162.5     M300,137.5c-41.421,0-75,33.579-75,75s33.579,75,75,75s75-33.579,75-75S341.421,137.5,300,137.5L300,137.5z M302.521,498.024    l187.135-93.567c6.77-3.385,10.834-10.515,10.297-18.065c-0.536-7.55-5.567-14.033-12.749-16.426l-70.175-23.392    c-9.801-3.27-20.403,2.03-23.671,11.835c-3.268,9.805,2.03,20.403,11.836,23.671l27.315,9.105l-138.08,69.04l-131.397-70.079    l21.111-8.445c9.596-3.838,14.264-14.729,10.425-24.325c-3.839-9.597-14.731-14.265-24.325-10.425l-58.48,23.392    c-6.76,2.704-11.338,9.082-11.735,16.351c-0.398,7.269,3.455,14.11,9.878,17.536l175.439,93.567c2.75,1.467,5.777,2.202,8.807,2.202    C297.018,500,299.885,499.343,302.521,498.024z" fill="#000000" fill-opacity="1"></path></g><path d="M245.69 256.63L247.04 256.05L247.04 233.97L229.18 233.97L229.18 238.64L241.09 238.64L241.09 252.08Q236.99 253.75 232.57 253.75L232.57 253.75Q213.57 253.75 213.57 235.19L213.57 235.19Q213.57 216.95 232.77 216.95L232.77 216.95Q243.01 216.95 245.44 220.72L245.44 220.72L246.08 214.77Q241.21 211.83 232.77 211.83L232.77 211.83Q207.42 211.83 207.29 235.83L207.29 235.83Q207.29 259.19 232.64 259.19L232.64 259.19Q239.93 259.19 245.69 256.63L245.69 256.63ZM259.20 244.02L282.17 244.02Q282.17 229.88 275.65 225.97L275.65 225.97Q272.89 224.50 269.12 224.50L269.12 224.50Q262.21 224.50 257.79 229.49L257.79 229.49Q253.37 234.48 253.37 241.91L253.37 241.91Q253.37 249.40 257.73 254.32L257.73 254.32Q262.01 259.19 268.99 259.19L268.99 259.19Q275.97 259.19 281.21 255.86L281.21 255.86L281.21 249.72Q276.67 253.75 269.05 253.75L269.05 253.75Q264.77 253.75 262.21 251.51L262.21 251.51Q259.71 249.33 259.20 244.02L259.20 244.02ZM268.93 230.20L269.05 230.20Q273.21 230.20 275.07 232.31L275.07 232.31Q276.86 234.42 277.18 238.96L277.18 238.96L259.20 238.96Q260.35 230.20 268.93 230.20L268.93 230.20ZM313.41 228.79L313.41 228.79Q308.73 223.73 301.89 223.73L301.89 223.73Q294.97 223.73 290.49 228.79L290.49 228.79Q286.01 233.84 286.01 241.46L286.01 241.46Q286.01 249.08 290.49 254.39L290.49 254.39Q294.97 259.70 301.82 259.70L301.82 259.70Q308.67 259.70 313.34 254.39L313.34 254.39Q318.08 249.08 318.08 241.46L318.08 241.46Q318.08 233.84 313.41 228.79L313.41 228.79ZM294.53 232.31L294.53 232.31Q297.15 228.53 301.69 228.53L301.69 228.53Q306.24 228.53 308.93 232.31L308.93 232.31Q311.61 236.02 311.61 241.33L311.61 241.33Q311.61 246.64 308.93 250.80L308.93 250.80Q306.17 254.90 301.63 254.90L301.63 254.90Q297.09 254.90 294.46 250.74L294.46 250.74Q291.90 246.64 291.90 241.40L291.90 241.40Q291.90 236.08 294.53 232.31L294.53 232.31ZM329.34 212.02L323.13 212.02L323.13 258.42L354.43 258.42L354.43 253.68L329.34 253.68L329.34 212.02ZM380.67 234.87L380.67 234.87L380.54 235.76Q364.93 236.08 361.15 242.04L361.15 242.04Q359.23 245.24 359.23 249.33L359.23 249.33L359.23 249.52Q359.23 253.49 362.43 256.31L362.43 256.31Q365.63 259.12 371.84 259.12L371.84 259.12Q377.47 258.48 380.54 253.17L380.54 253.17Q380.80 256.88 383.42 258.42L383.42 258.42L388.09 258.55Q386.17 254.71 386.17 252.15L386.17 252.15L386.17 237.68Q386.17 223.99 373.57 223.99L373.57 223.99L373.25 223.99Q364.61 223.99 359.55 229.04L359.55 229.04L362.75 232.12Q366.59 228.53 373.63 228.53L373.63 228.53Q380.67 228.53 380.67 234.87ZM366.08 252.15L366.08 252.15Q365.12 250.80 365.12 248.76L365.12 248.76Q365.12 245.04 369.09 242.68L369.09 242.68Q373.05 240.24 380.54 239.99L380.54 239.99L380.54 245.04Q380.54 245.75 380.09 247.03L380.09 247.03Q379.01 250.68 376.83 252.08L376.83 252.08Q374.72 253.56 370.88 253.56L370.88 253.56Q366.97 253.56 366.08 252.15L366.08 252.15ZM409.60 224.18L409.60 224.18Q403.39 224.18 400.51 230.07L400.51 230.07L400.51 211.06L394.81 211.06L394.81 258.61L400.51 258.61L400.51 253.81Q402.49 259.38 409.66 259.38L409.66 259.38Q415.81 259.38 419.52 254.32L419.52 254.32Q423.29 249.20 423.29 241.20L423.29 241.20Q423.29 233.20 419.52 228.72L419.52 228.72Q415.81 224.18 409.60 224.18ZM417.41 241.72L417.41 241.72Q417.28 247.03 415.10 250.29L415.10 250.29Q412.80 253.56 408.83 253.56L408.83 253.56Q401.34 253.56 400.51 243.70L400.51 243.70L400.51 239.28Q401.02 230.00 408.83 229.94L408.83 229.94Q417.02 229.94 417.41 241.72Z" data-element="company-name" data-text-path="" data-text="GeoLab" data-font-family="JP Sawarabi Gothic" fill="#000000" fill-opacity="1"></path><path d="M221.51 292.03L221.51 292.03Q220.33 292.03 220.33 290.86L220.33 290.86Q220.33 290.28 220.80 290.03Q221.26 289.79 221.73 289.68L221.73 289.68Q223.45 289.30 224.42 288.54Q225.39 287.79 225.81 286.62Q226.24 285.44 226.29 283.75L226.29 283.75L222.16 283.75Q221.42 283.75 221.21 284.21Q220.99 284.68 221.03 285.36Q221.07 286.04 221.10 286.73Q221.12 287.41 220.89 287.87Q220.66 288.34 219.87 288.34L219.87 288.34Q219.24 288.34 218.95 287.97Q218.66 287.60 218.66 287.00L218.66 287.00L218.66 283.94Q218.66 282.71 219.32 282.13Q219.98 281.56 221.15 281.56L221.15 281.56L229.52 281.56Q229.52 280.96 229.49 280.29Q229.46 279.62 229.71 279.12Q229.96 278.63 230.80 278.63L230.80 278.63Q231.68 278.63 231.92 279.11Q232.17 279.59 232.14 280.26Q232.12 280.93 232.12 281.56L232.12 281.56L240.59 281.56Q241.88 281.56 242.60 282.05Q243.33 282.54 243.33 283.94L243.33 283.94L243.33 286.95Q243.33 287.55 243.04 287.92Q242.75 288.28 242.12 288.28L242.12 288.28Q241.36 288.28 241.11 287.82Q240.87 287.36 240.89 286.69Q240.92 286.02 240.96 285.35Q241.00 284.68 240.78 284.21Q240.57 283.75 239.83 283.75L239.83 283.75L234.44 283.75L234.44 288.53Q234.44 289.13 235.00 289.28Q235.56 289.43 236.00 289.43L236.00 289.43Q236.33 289.43 236.96 289.39Q237.58 289.35 237.86 289.21L237.86 289.21Q238.10 289.08 238.17 288.71Q238.24 288.34 238.30 287.92Q238.35 287.49 238.60 287.19Q238.84 286.89 239.44 286.89L239.44 286.89Q239.96 286.89 240.28 287.14Q240.59 287.38 240.59 287.93L240.59 287.93Q240.59 289.52 240.14 290.31Q239.69 291.10 238.75 291.35Q237.80 291.59 236.35 291.59L236.35 291.59Q235.78 291.59 235.07 291.61Q234.36 291.62 233.67 291.50Q232.99 291.37 232.55 290.98Q232.12 290.58 232.12 289.79L232.12 289.79L232.12 283.75L228.59 283.75Q228.37 285.41 228.08 286.77Q227.80 288.12 227.03 289.19Q226.26 290.25 224.60 291.07L224.60 291.07Q223.97 291.37 223.09 291.70Q222.22 292.03 221.51 292.03ZM242.32 303.35L219.73 303.35Q219.13 303.35 218.72 303.11Q218.31 302.86 218.31 302.20L218.31 302.20Q218.31 301.52 218.72 301.27Q219.13 301.03 219.73 301.03L219.73 301.03L229.60 301.03L229.60 295.83L221.62 295.83Q221.04 295.83 220.63 295.59Q220.22 295.34 220.22 294.71L220.22 294.71Q220.22 294.08 220.63 293.84Q221.04 293.59 221.62 293.59L221.62 293.59L240.43 293.59Q241.00 293.59 241.41 293.84Q241.82 294.08 241.82 294.71L241.82 294.71Q241.82 295.34 241.41 295.59Q241.00 295.83 240.43 295.83L240.43 295.83L232.03 295.83L232.03 301.03L242.32 301.03Q242.92 301.03 243.31 301.29Q243.71 301.55 243.71 302.20L243.71 302.20Q243.71 302.86 243.31 303.11Q242.92 303.35 242.32 303.35L242.32 303.35ZM268.40 304.34L266.62 304.34Q266.02 304.34 265.67 304.06Q265.31 303.79 265.31 303.16L265.31 303.16Q265.31 302.53 265.58 302.30Q265.86 302.07 266.30 302.03Q266.73 301.98 267.17 301.98L267.17 301.98Q267.80 301.98 268.29 301.81Q268.78 301.63 268.78 300.75L268.78 300.75L268.78 289.38L262.47 289.38Q261.43 289.38 260.84 288.97Q260.25 288.56 260.25 287.44L260.25 287.44L260.25 281.50Q260.25 279.59 262.25 279.59L262.25 279.59L268.81 279.59Q269.85 279.59 270.44 280.08Q271.03 280.57 271.03 281.67L271.03 281.67L271.00 282.02L271.00 301.38Q271.00 302.78 270.47 303.56Q269.93 304.34 268.40 304.34L268.40 304.34ZM248.44 304.42L248.44 304.42Q247.84 304.42 247.59 304.06Q247.35 303.71 247.35 303.16L247.35 303.16L247.35 281.72Q247.35 280.46 247.99 280.03Q248.63 279.59 249.78 279.59L249.78 279.59L255.74 279.59Q257.74 279.59 257.74 281.50L257.74 281.50L257.74 287.44Q257.74 289.38 255.74 289.38L255.74 289.38L249.56 289.38L249.56 303.16Q249.56 303.73 249.30 304.08Q249.04 304.42 248.44 304.42ZM249.56 282.35L249.56 283.55L255.69 283.55L255.69 282.32Q255.69 281.45 254.81 281.45L254.81 281.45L250.49 281.45Q250.08 281.45 249.82 281.70Q249.56 281.94 249.56 282.35L249.56 282.35ZM262.30 282.32L262.30 283.55L268.78 283.55L268.78 282.35Q268.78 281.94 268.52 281.70Q268.26 281.45 267.85 281.45L267.85 281.45L263.18 281.45Q262.30 281.45 262.30 282.32L262.30 282.32ZM249.56 285.33L249.56 287.55L254.81 287.55Q255.69 287.55 255.69 286.67L255.69 286.67L255.69 285.33L249.56 285.33ZM263.18 287.55L263.18 287.55L268.78 287.55L268.78 285.33L262.30 285.33L262.30 286.67Q262.30 287.55 263.18 287.55ZM263.07 302.23L255.03 302.23Q254.07 302.23 253.48 301.77Q252.90 301.30 252.90 300.29L252.90 300.29L252.90 292.99Q252.90 291.87 253.53 291.46Q254.15 291.05 255.17 291.05L255.17 291.05L262.85 291.05Q264.11 291.05 264.59 291.59Q265.07 292.14 265.07 293.34L265.07 293.34L265.07 300.23Q265.07 302.23 263.07 302.23L263.07 302.23ZM255.03 293.86L255.03 295.64L262.88 295.64L262.88 293.86Q262.88 293.45 262.63 293.21Q262.39 292.96 261.98 292.96L261.98 292.96L255.93 292.96Q255.52 292.96 255.28 293.21Q255.03 293.45 255.03 293.86L255.03 293.86ZM255.93 300.29L255.93 300.29L261.98 300.29Q262.39 300.29 262.63 300.04Q262.88 299.80 262.88 299.39L262.88 299.39L262.88 297.50L255.03 297.50L255.03 299.39Q255.03 299.80 255.28 300.04Q255.52 300.29 255.93 300.29ZM298.53 289.76L298.53 289.76Q298.40 289.76 298.22 289.73Q298.04 289.71 297.90 289.68L297.90 289.68Q296.40 289.43 294.77 288.91Q293.15 288.39 291.71 287.51Q290.28 286.62 289.37 285.33L289.37 285.33Q288.61 286.43 287.25 287.31Q285.90 288.20 284.36 288.71Q282.81 289.21 281.47 289.21L281.47 289.21Q280.49 289.21 280.49 288.23L280.49 288.23Q280.49 287.77 280.75 287.55Q281.01 287.33 281.42 287.25L281.42 287.25Q282.46 287.03 283.56 286.74Q284.67 286.45 285.67 285.96Q286.67 285.47 287.38 284.66Q288.09 283.86 288.33 282.62L288.33 282.62L284.73 282.62Q284.53 282.90 284.07 283.38Q283.60 283.86 283.08 284.24Q282.57 284.62 282.18 284.62L282.18 284.62Q281.17 284.62 281.17 283.58L281.17 283.58Q281.17 283.28 281.39 283.02Q281.61 282.76 281.83 282.57L281.83 282.57Q282.57 281.91 283.25 281.19Q283.93 280.46 284.56 279.70L284.56 279.70Q284.78 279.40 285.16 279.03Q285.55 278.66 285.96 278.66L285.96 278.66Q286.37 278.66 286.73 278.81Q287.10 278.96 287.10 279.48L287.10 279.48Q287.10 279.75 286.80 280.18Q286.50 280.60 286.34 280.82L286.34 280.82L296.76 280.82Q297.41 280.82 298.06 281.05Q298.70 281.28 298.70 282.11L298.70 282.11Q298.70 282.32 298.36 282.80Q298.01 283.28 297.49 283.83Q296.98 284.37 296.40 284.89Q295.83 285.41 295.35 285.74Q294.87 286.07 294.65 286.07L294.65 286.07Q293.64 286.07 293.64 285.06L293.64 285.06Q293.64 284.78 293.93 284.47Q294.21 284.16 294.61 283.86Q295.01 283.55 295.29 283.29Q295.58 283.03 295.58 282.84L295.58 282.84Q295.58 282.62 295.31 282.62L295.31 282.62L290.44 282.62L290.25 283.45Q291.26 284.84 292.60 285.63Q293.94 286.43 295.48 286.84Q297.03 287.25 298.62 287.55L298.62 287.55Q299.05 287.63 299.35 287.86Q299.65 288.09 299.65 288.59L299.65 288.59Q299.65 289.76 298.53 289.76ZM279.69 282.68L279.69 282.68Q279.53 282.68 279.11 282.45Q278.68 282.21 278.18 281.91Q277.67 281.61 277.27 281.35Q276.88 281.09 276.74 281.01L276.74 281.01Q276.47 280.85 276.21 280.62Q275.95 280.38 275.95 280.03L275.95 280.03Q275.95 278.99 277.04 278.99L277.04 278.99Q277.29 278.99 277.90 279.26Q278.52 279.53 279.20 279.95Q279.89 280.36 280.38 280.78Q280.87 281.20 280.87 281.50L280.87 281.50Q280.87 282.68 279.69 282.68ZM275.40 290.20L275.40 290.20Q274.83 290.20 274.57 289.87Q274.31 289.54 274.31 289.00L274.31 289.00Q274.31 288.72 274.83 288.20Q275.35 287.68 276.08 287.08Q276.82 286.48 277.48 285.97Q278.14 285.47 278.41 285.22L278.41 285.22Q278.63 285.03 278.89 284.87Q279.15 284.70 279.45 284.70L279.45 284.70Q280.54 284.70 280.54 285.71L280.54 285.71Q280.54 285.96 280.10 286.49Q279.67 287.03 278.98 287.66Q278.30 288.28 277.57 288.87Q276.85 289.46 276.26 289.83Q275.67 290.20 275.40 290.20ZM294.68 300.81L279.31 300.81Q277.01 300.81 277.01 298.51L277.01 298.51L277.01 291.70Q277.01 289.41 279.31 289.41L279.31 289.41L294.68 289.41Q296.98 289.41 296.98 291.70L296.98 291.70L296.98 298.51Q296.98 300.81 294.68 300.81L294.68 300.81ZM279.37 292.06L279.37 292.69L294.62 292.69L294.62 292.06Q294.62 291.62 294.38 291.36Q294.13 291.10 293.69 291.10L293.69 291.10L280.32 291.10Q279.37 291.10 279.37 292.06L279.37 292.06ZM279.37 294.25L279.37 295.86L294.62 295.86L294.62 294.25L279.37 294.25ZM280.32 299.11L280.32 299.11L293.69 299.11Q294.13 299.11 294.38 298.85Q294.62 298.59 294.62 298.16L294.62 298.16L294.62 297.42L279.37 297.42L279.37 298.16Q279.37 299.11 280.32 299.11ZM275.26 304.42L275.26 304.42Q274.72 304.42 274.51 304.08Q274.31 303.73 274.31 303.24L274.31 303.24Q274.31 302.75 274.66 302.50L274.66 302.50Q274.80 302.39 275.25 302.34Q275.70 302.28 276.17 302.24Q276.63 302.20 276.80 302.20L276.80 302.20Q277.86 302.12 278.91 301.92Q279.97 301.71 281.01 301.49L281.01 301.49Q281.09 301.46 281.46 301.38Q281.83 301.30 282.28 301.20Q282.73 301.11 283.08 301.04Q283.44 300.97 283.47 300.97L283.47 300.97Q284.59 300.97 284.59 302.04L284.59 302.04Q284.59 302.56 284.11 302.78Q283.63 303.00 283.25 303.11L283.25 303.11Q281.33 303.60 279.30 304.01Q277.26 304.42 275.26 304.42ZM298.67 304.42L298.67 304.42Q298.23 304.42 297.18 304.32Q296.13 304.23 294.83 304.02Q293.53 303.82 292.33 303.54Q291.12 303.27 290.33 302.89Q289.54 302.50 289.54 302.07L289.54 302.07Q289.54 301.52 289.85 301.27Q290.17 301.03 290.69 301.03L290.69 301.03Q290.74 301.03 290.96 301.07Q291.18 301.11 291.23 301.14L291.23 301.14Q292.96 301.49 294.65 301.82Q296.35 302.15 298.10 302.28L298.10 302.28Q298.62 302.31 299.18 302.48Q299.74 302.64 299.74 303.32L299.74 303.32Q299.74 304.42 298.67 304.42ZM310.18 281.91L304.33 281.91Q303.81 281.91 303.47 281.70Q303.13 281.48 303.13 280.90L303.13 280.90Q303.13 280.33 303.47 280.11Q303.81 279.89 304.33 279.89L304.33 279.89L310.18 279.89Q310.70 279.89 311.06 280.11Q311.41 280.33 311.41 280.90L311.41 280.90Q311.41 281.48 311.06 281.70Q310.70 281.91 310.18 281.91L310.18 281.91ZM325.52 304.03L325.52 304.03Q324.81 304.03 324.32 303.37Q323.83 302.70 323.50 301.60Q323.17 300.51 322.98 299.24Q322.79 297.96 322.69 296.73Q322.60 295.50 322.57 294.55Q322.54 293.59 322.54 293.18L322.54 293.18L322.46 284.43Q322.46 283.96 322.47 283.46Q322.49 282.95 322.28 282.61Q322.08 282.27 321.39 282.27L321.39 282.27L313.30 282.27Q312.73 282.27 312.32 282.02Q311.90 281.78 311.90 281.15L311.90 281.15Q311.90 280.52 312.32 280.27Q312.73 280.03 313.30 280.03L313.30 280.03L321.91 280.03Q323.12 280.03 323.94 280.55Q324.76 281.07 324.76 282.41L324.76 282.41Q324.76 285.41 324.76 288.45Q324.76 291.48 324.78 294.49L324.78 294.49Q324.78 294.68 324.81 295.38Q324.84 296.08 324.89 296.98Q324.95 297.88 325.06 298.76Q325.17 299.63 325.33 300.21Q325.49 300.78 325.71 300.78L325.71 300.78Q325.77 300.78 325.81 300.67Q325.85 300.56 325.85 300.53L325.85 300.53Q326.07 299.77 326.06 298.92Q326.04 298.07 326.07 297.31L326.07 297.31Q326.10 296.84 326.29 296.60Q326.48 296.35 326.97 296.35L326.97 296.35Q327.87 296.35 327.87 297.34L327.87 297.34Q327.87 297.75 327.85 298.55Q327.82 299.36 327.71 300.29Q327.60 301.22 327.34 302.08Q327.08 302.94 326.64 303.49Q326.21 304.03 325.52 304.03ZM312.97 304.06L312.97 304.06Q312.37 304.06 312.10 303.72Q311.82 303.38 311.82 302.80L311.82 302.80Q311.82 302.50 312.00 302.24Q312.18 301.98 312.37 301.79L312.37 301.79Q314.07 299.96 314.90 297.95Q315.73 295.94 315.79 293.45L315.79 293.45Q315.49 293.53 314.93 293.71Q314.37 293.89 313.81 294.03Q313.24 294.16 312.94 294.16L312.94 294.16Q312.37 294.16 312.12 293.84Q311.88 293.51 311.88 292.99L311.88 292.99Q311.88 292.50 312.38 292.17Q312.89 291.84 313.60 291.63Q314.31 291.43 314.95 291.31Q315.60 291.18 315.90 291.10L315.90 291.10Q315.92 290.69 315.94 290.29Q315.95 289.90 315.95 289.49L315.95 289.49Q315.95 288.31 315.94 287.16Q315.92 286.02 315.92 284.84L315.92 284.84Q315.92 284.27 316.18 283.87Q316.44 283.47 317.07 283.47L317.07 283.47Q318.17 283.47 318.17 284.65L318.17 284.65Q318.17 285.99 318.14 287.33Q318.11 288.67 318.08 290.03L318.08 290.03L318.08 290.45Q318.39 290.34 318.93 290.12Q319.48 289.90 320.03 289.71Q320.57 289.52 320.85 289.52L320.85 289.52Q321.34 289.52 321.57 289.80Q321.80 290.09 321.80 290.55L321.80 290.55Q321.80 290.96 321.34 291.31Q320.87 291.65 320.20 291.94Q319.53 292.22 318.93 292.41Q318.33 292.61 318.03 292.71L318.03 292.71Q317.98 294.79 317.55 296.88Q317.13 298.98 316.09 300.81L316.09 300.81Q315.90 301.14 315.56 301.68Q315.21 302.23 314.79 302.78Q314.37 303.32 313.90 303.69Q313.44 304.06 312.97 304.06ZM311.08 285.71L303.35 285.71Q302.83 285.71 302.47 285.50Q302.12 285.28 302.12 284.70L302.12 284.70Q302.12 284.13 302.47 283.91Q302.83 283.69 303.35 283.69L303.35 283.69L311.08 283.69Q311.60 283.69 311.96 283.91Q312.32 284.13 312.32 284.70L312.32 284.70Q312.32 285.28 311.96 285.50Q311.60 285.71 311.08 285.71L311.08 285.71ZM310.10 289.41L304.41 289.41Q303.89 289.41 303.57 289.19Q303.24 288.97 303.24 288.42L303.24 288.42Q303.24 287.87 303.58 287.67Q303.92 287.46 304.41 287.46L304.41 287.46L310.10 287.46Q310.62 287.46 310.95 287.68Q311.28 287.90 311.28 288.45L311.28 288.45Q311.28 289.00 310.93 289.20Q310.59 289.41 310.10 289.41L310.10 289.41ZM310.10 293.15L304.47 293.15Q303.98 293.15 303.61 292.95Q303.24 292.74 303.24 292.20L303.24 292.20Q303.24 291.65 303.57 291.43Q303.89 291.21 304.41 291.21L304.41 291.21L310.10 291.21Q310.62 291.21 310.95 291.43Q311.28 291.65 311.28 292.20L311.28 292.20Q311.28 292.74 310.93 292.95Q310.59 293.15 310.10 293.15L310.10 293.15ZM308.98 303.24L305.59 303.24Q303.29 303.24 303.29 301.05L303.29 301.05L303.29 297.17Q303.29 294.93 305.59 294.93L305.59 294.93L308.98 294.93Q311.28 294.93 311.28 297.17L311.28 297.17L311.28 301.00Q311.28 303.24 308.98 303.24L308.98 303.24ZM306.05 301.38L306.05 301.38L308.51 301.38Q309.25 301.38 309.25 300.64L309.25 300.64L309.25 297.53Q309.25 296.79 308.51 296.79L308.51 296.79L306.05 296.79Q305.32 296.79 305.32 297.53L305.32 297.53L305.32 300.64Q305.32 301.38 306.05 301.38ZM331.87 285.58L331.87 285.58Q330.74 285.58 330.74 284.46L330.74 284.46L330.74 282.93Q330.74 280.63 332.96 280.63L332.96 280.63L341.55 280.63Q341.55 280.08 341.57 279.64Q341.60 279.21 341.86 278.93Q342.12 278.66 342.80 278.66L342.80 278.66Q343.51 278.66 343.77 278.92Q344.03 279.18 344.06 279.63Q344.09 280.08 344.09 280.63L344.09 280.63L352.81 280.63Q353.99 280.63 354.60 281.13Q355.22 281.64 355.22 282.87L355.22 282.87L355.22 284.46Q355.22 285.58 354.12 285.58L354.12 285.58Q353.44 285.58 353.22 285.26Q353.00 284.95 353.00 284.47Q353.00 283.99 353.03 283.53Q353.06 283.06 352.91 282.75Q352.76 282.43 352.18 282.43L352.18 282.43L333.81 282.43Q333.26 282.43 333.10 282.75Q332.93 283.06 332.95 283.53Q332.96 283.99 332.96 284.47Q332.96 284.95 332.74 285.26Q332.52 285.58 331.87 285.58ZM350.02 290.39L335.61 290.39Q334.76 290.39 334.14 290.03Q333.51 289.68 333.51 288.72L333.51 288.72Q333.51 288.48 333.56 288.18Q333.62 287.87 333.64 287.63L333.64 287.63L331.18 287.63Q330.83 287.63 330.59 287.46Q330.36 287.30 330.36 286.92L330.36 286.92Q330.36 286.53 330.59 286.37Q330.83 286.21 331.18 286.21L331.18 286.21L333.89 286.21L333.89 286.18Q333.97 285.50 334.12 284.89Q334.27 284.29 334.68 283.90Q335.09 283.50 335.91 283.50L335.91 283.50L349.97 283.50Q350.95 283.50 351.53 283.95Q352.10 284.40 352.10 285.44L352.10 285.44Q352.10 285.63 352.09 285.82Q352.07 286.02 352.05 286.21L352.05 286.21L354.81 286.21Q355.19 286.21 355.42 286.37Q355.65 286.53 355.65 286.92L355.65 286.92Q355.65 287.30 355.42 287.46Q355.19 287.63 354.81 287.63L354.81 287.63L351.96 287.63Q351.94 288.31 351.81 288.94Q351.69 289.57 351.29 289.98Q350.90 290.39 350.02 290.39L350.02 290.39ZM335.99 286.21L335.99 286.21L341.87 286.21L341.98 284.92L336.90 284.92Q336.43 284.92 336.24 285.37Q336.05 285.82 335.99 286.21ZM344.06 284.92L343.95 286.21L349.91 286.21L349.91 286.04L349.94 285.71Q349.94 285.33 349.82 285.13Q349.69 284.92 349.26 284.92L349.26 284.92L344.06 284.92ZM336.40 288.97L336.40 288.97L341.49 288.97L341.68 287.63L335.78 287.63Q335.75 287.79 335.73 287.98Q335.72 288.18 335.72 288.34L335.72 288.34Q335.72 288.97 336.40 288.97ZM343.76 287.63L343.60 288.97L348.96 288.97Q349.50 288.97 349.65 288.50Q349.80 288.04 349.83 287.63L349.83 287.63L343.76 287.63ZM350.82 301.00L334.96 301.00Q333.83 301.00 333.41 300.45Q332.99 299.91 332.99 298.84L332.99 298.84L332.99 293.51Q332.99 291.57 334.93 291.57L334.93 291.57L350.82 291.57Q352.76 291.57 352.76 293.51L352.76 293.51L352.76 299.06Q352.76 301.00 350.82 301.00L350.82 301.00ZM335.20 293.81L335.20 294.25L350.54 294.25L350.54 293.81Q350.54 293.02 349.78 293.02L349.78 293.02L335.99 293.02Q335.20 293.02 335.20 293.81L335.20 293.81ZM335.20 295.61L335.20 296.87L350.54 296.87L350.54 295.61L335.20 295.61ZM335.99 299.55L335.99 299.55L349.78 299.55Q350.54 299.55 350.54 298.76L350.54 298.76L350.54 298.24L335.20 298.24L335.20 298.76Q335.20 299.55 335.99 299.55ZM331.37 304.42L331.37 304.42Q330.23 304.42 330.23 303.30L330.23 303.30Q330.23 302.94 330.55 302.78Q330.88 302.61 331.29 302.54Q331.70 302.48 331.92 302.45L331.92 302.45Q333.42 302.31 334.90 302.11Q336.38 301.90 337.85 301.57L337.85 301.57Q338.15 301.52 338.51 301.42Q338.87 301.33 339.17 301.33L339.17 301.33Q339.63 301.33 339.95 301.52Q340.26 301.71 340.26 302.26L340.26 302.26Q340.26 302.67 339.49 303.01Q338.73 303.35 337.55 303.61Q336.38 303.87 335.11 304.05Q333.83 304.23 332.82 304.32Q331.81 304.42 331.37 304.42ZM354.64 304.42L354.64 304.42Q353.03 304.42 351.25 304.06Q349.48 303.71 347.89 303.41L347.89 303.41Q347.67 303.35 347.10 303.26Q346.52 303.16 346.03 302.95Q345.54 302.75 345.54 302.39L345.54 302.39Q345.54 301.93 345.87 301.60Q346.19 301.27 346.69 301.36L346.69 301.36Q347.62 301.52 348.53 301.70Q349.45 301.87 350.38 302.01L350.38 302.01Q351.36 302.15 352.37 302.24Q353.39 302.34 354.37 302.48L354.37 302.48Q354.83 302.53 355.30 302.65Q355.76 302.78 355.76 303.38L355.76 303.38Q355.76 303.90 355.46 304.16Q355.16 304.42 354.64 304.42ZM369.52 288.80L369.52 288.80Q368.53 288.80 368.53 287.74L368.53 287.74Q368.53 287.38 368.79 287.11Q369.05 286.84 369.30 286.64L369.30 286.64Q370.58 285.61 371.53 284.58Q372.47 283.55 373.21 282.37Q373.95 281.18 374.55 279.64L374.55 279.64Q374.71 279.21 374.99 278.93Q375.26 278.66 375.75 278.66L375.75 278.66Q376.11 278.66 376.42 278.80Q376.74 278.93 376.74 279.37L376.74 279.37Q376.74 279.40 376.70 279.58Q376.65 279.75 376.63 279.81L376.63 279.81Q377.91 281.80 379.44 283.35Q380.98 284.89 383.03 286.10L383.03 286.10Q383.35 286.29 383.61 286.56Q383.87 286.84 383.87 287.25L383.87 287.25Q383.87 288.39 382.75 288.39L382.75 288.39Q382.34 288.39 381.70 288.00Q381.06 287.60 380.47 287.11Q379.88 286.62 379.58 286.34L379.58 286.34Q379.85 286.67 379.85 287.03L379.85 287.03Q379.85 287.55 379.53 287.77Q379.20 287.98 378.71 287.98L378.71 287.98L373.40 287.98Q372.91 287.98 372.58 287.77Q372.25 287.55 372.25 287.03L372.25 287.03Q372.25 286.75 372.39 286.48L372.39 286.48Q372.14 286.78 371.61 287.34Q371.08 287.90 370.50 288.35Q369.93 288.80 369.52 288.80ZM364.82 304.20L364.82 304.20Q363.64 304.20 363.64 303.11L363.64 303.11Q363.64 302.53 363.97 302.28Q364.30 302.04 364.82 302.04L364.82 302.04Q365.85 302.04 366.33 301.56Q366.81 301.08 366.98 300.32Q367.14 299.55 367.19 298.73L367.19 298.73Q367.00 298.98 366.70 298.98L366.70 298.98Q366.43 298.98 366.18 298.55Q365.94 298.13 365.74 297.55Q365.55 296.98 365.44 296.47Q365.33 295.97 365.28 295.83L365.28 295.83Q365.20 295.59 365.43 295.46Q365.66 295.34 365.85 295.34L365.85 295.34Q366.13 295.34 366.36 295.70Q366.59 296.05 366.77 296.53Q366.95 297.01 367.08 297.45Q367.22 297.88 367.28 298.05L367.28 298.05Q367.33 297.31 367.37 296.57Q367.41 295.83 367.47 295.09L367.47 295.09Q367.55 294.30 366.65 294.30L366.65 294.30L361.40 294.30Q359.24 294.30 359.24 292.17L359.24 292.17L359.24 281.94Q359.24 279.78 361.40 279.78L361.40 279.78L368.51 279.78Q368.97 279.78 369.27 279.99Q369.57 280.19 369.57 280.71L369.57 280.71Q369.57 281.23 369.27 281.44Q368.97 281.64 368.51 281.64L368.51 281.64L365.66 281.64L365.66 284.05L367.90 284.05Q368.89 284.05 368.89 284.95L368.89 284.95Q368.89 285.41 368.62 285.62Q368.34 285.82 367.90 285.82L367.90 285.82L365.66 285.82L365.66 288.23L367.90 288.23Q368.89 288.23 368.89 289.13L368.89 289.13Q368.89 289.60 368.62 289.80Q368.34 290.01 367.90 290.01L367.90 290.01L365.66 290.01L365.66 292.52Q366.26 292.52 366.91 292.51Q367.55 292.50 368.08 292.62Q368.62 292.74 368.96 293.14Q369.30 293.53 369.30 294.36L369.30 294.36Q369.30 294.63 369.27 294.93Q369.24 295.23 369.22 295.53L369.22 295.53Q369.19 296.13 369.11 297.08Q369.03 298.02 368.90 299.06Q368.78 300.10 368.60 301.00Q368.42 301.90 368.18 302.48L368.18 302.48Q367.74 303.52 366.80 303.86Q365.85 304.20 364.82 304.20ZM372.55 286.32L372.55 286.32Q372.74 286.18 372.96 286.12Q373.18 286.07 373.40 286.07L373.40 286.07L378.71 286.07Q378.90 286.07 379.09 286.10Q379.28 286.12 379.44 286.23L379.44 286.23Q378.35 285.22 377.43 284.02Q376.52 282.82 375.78 281.53L375.78 281.53Q375.10 282.79 374.29 283.99Q373.48 285.20 372.55 286.32ZM361.10 282.49L361.10 284.05L363.86 284.05L363.86 281.64L361.94 281.64Q361.10 281.64 361.10 282.49L361.10 282.49ZM361.10 285.82L361.10 288.23L363.86 288.23L363.86 285.82L361.10 285.82ZM369.87 303.62L369.87 303.62Q368.89 303.62 368.89 302.67L368.89 302.67Q368.89 302.37 369.24 301.96Q369.60 301.55 369.79 301.36L369.79 301.36Q370.67 300.45 371.19 299.33Q371.71 298.21 371.98 297.01L371.98 297.01Q370.01 297.01 370.01 295.04L370.01 295.04L370.01 291.62Q370.01 289.65 371.95 289.65L371.95 289.65L373.67 289.65Q375.62 289.65 375.62 291.62L375.62 291.62L375.62 295.04Q375.62 295.97 375.16 296.49Q374.71 297.01 373.76 296.98L373.76 296.98L373.46 298.35Q373.76 298.51 374.36 298.91Q374.96 299.30 375.45 299.78Q375.94 300.26 375.94 300.67L375.94 300.67Q375.94 301.63 374.99 301.63L374.99 301.63Q374.71 301.63 374.29 301.27Q373.87 300.92 373.47 300.51Q373.07 300.10 372.88 299.93L372.88 299.93Q372.72 300.29 372.42 300.90Q372.12 301.52 371.71 302.15Q371.30 302.78 370.83 303.20Q370.37 303.62 369.87 303.62ZM375.75 304.03L375.75 304.03Q374.74 304.03 374.74 303.02L374.74 303.02Q374.74 302.70 374.99 302.44Q375.23 302.18 375.45 301.98L375.45 301.98Q376.71 300.97 377.45 299.77Q378.19 298.57 378.40 296.98L378.40 296.98Q376.60 296.95 376.60 295.04L376.60 295.04L376.60 291.62Q376.60 289.65 378.51 289.65L378.51 289.65L380.48 289.65Q382.42 289.65 382.42 291.62L382.42 291.62L382.42 295.04Q382.42 296.21 381.82 296.61Q381.22 297.01 380.15 297.01L380.15 297.01Q380.10 297.53 380.00 298.03Q379.91 298.54 379.74 299.03L379.74 299.03Q380.07 299.25 380.69 299.70Q381.30 300.15 381.96 300.71Q382.62 301.27 383.08 301.82Q383.55 302.37 383.55 302.83L383.55 302.83Q383.55 303.90 382.40 303.90L382.40 303.90Q382.15 303.90 381.67 303.47Q381.19 303.05 380.65 302.46Q380.10 301.87 379.65 301.37Q379.20 300.86 379.01 300.67L379.01 300.67Q378.82 301.00 378.46 301.56Q378.10 302.12 377.65 302.70Q377.20 303.27 376.71 303.65Q376.22 304.03 375.75 304.03ZM361.94 292.52L361.94 292.52L363.86 292.52L363.86 290.01L361.10 290.01L361.10 291.70Q361.10 292.52 361.94 292.52ZM372.44 295.23L372.44 295.23L373.21 295.23Q373.92 295.23 373.92 294.49L373.92 294.49L373.92 292.17Q373.92 291.43 373.21 291.43L373.21 291.43L372.44 291.43Q371.73 291.43 371.73 292.17L371.73 292.17L371.73 294.49Q371.73 295.23 372.44 295.23ZM379.06 295.23L379.06 295.23L379.88 295.23Q380.62 295.23 380.62 294.49L380.62 294.49L380.62 292.17Q380.62 291.43 379.88 291.43L379.88 291.43L379.06 291.43Q378.73 291.43 378.51 291.63Q378.30 291.84 378.30 292.17L378.30 292.17L378.30 294.49Q378.30 294.82 378.51 295.03Q378.73 295.23 379.06 295.23ZM364.57 299.85L364.57 299.85Q363.97 299.85 363.83 299.20L363.83 299.20L363.12 296.19Q363.07 295.89 363.32 295.76Q363.58 295.64 363.78 295.64L363.78 295.64Q364.10 295.64 364.36 296.16Q364.62 296.68 364.82 297.36Q365.01 298.05 365.13 298.58Q365.25 299.11 365.25 299.17L365.25 299.17Q365.33 299.50 365.09 299.67Q364.84 299.85 364.57 299.85ZM359.05 301.55L359.05 301.55Q358.64 301.55 358.38 301.36Q358.12 301.16 358.12 300.73L358.12 300.73Q358.12 300.34 358.24 299.89Q358.36 299.44 358.42 299.06L358.42 299.06Q358.50 298.51 358.57 297.96Q358.64 297.42 358.69 296.87L358.69 296.87Q358.74 296.49 358.91 296.13Q359.07 295.78 359.54 295.78L359.54 295.78Q359.89 295.78 360.14 295.97Q360.39 296.16 360.33 296.54L360.33 296.54L360.00 300.26Q359.98 300.70 359.77 301.12Q359.57 301.55 359.05 301.55ZM362.08 300.64L362.08 300.64Q361.73 300.64 361.56 300.30Q361.40 299.96 361.34 299.54Q361.29 299.11 361.26 298.89L361.26 298.89L360.99 296.52Q360.96 296.21 361.15 296.06Q361.34 295.91 361.62 295.91L361.62 295.91Q362.03 295.91 362.18 296.27Q362.33 296.62 362.38 296.95L362.38 296.95L362.85 299.91Q362.90 300.26 362.64 300.45Q362.38 300.64 362.08 300.64ZM387.81 288.42L387.81 288.42Q387.15 288.42 386.91 288.00Q386.66 287.57 386.66 286.97L386.66 286.97L386.66 283.91Q386.66 281.50 389.12 281.50L389.12 281.50L397.52 281.50Q397.52 280.90 397.49 280.23Q397.46 279.56 397.72 279.10Q397.98 278.63 398.83 278.63L398.83 278.63Q399.68 278.63 399.92 279.11Q400.17 279.59 400.14 280.26Q400.12 280.93 400.12 281.50L400.12 281.50L408.57 281.50Q409.85 281.50 410.59 281.97Q411.33 282.43 411.33 283.86L411.33 283.86L411.33 286.97Q411.33 287.57 411.08 288.00Q410.83 288.42 410.15 288.42L410.15 288.42Q409.52 288.42 409.28 288.08Q409.03 287.74 409.00 287.20Q408.98 286.67 409.02 286.06Q409.06 285.44 409.02 284.91Q408.98 284.37 408.72 284.03Q408.46 283.69 407.77 283.69L407.77 283.69L390.22 283.69Q389.56 283.69 389.29 284.03Q389.01 284.37 388.97 284.91Q388.93 285.44 388.97 286.06Q389.01 286.67 388.99 287.20Q388.96 287.74 388.71 288.08Q388.47 288.42 387.81 288.42ZM410.29 303.49L387.73 303.49Q387.18 303.49 386.77 303.26Q386.36 303.02 386.36 302.39L386.36 302.39Q386.36 301.77 386.76 301.52Q387.15 301.27 387.73 301.27L387.73 301.27L397.71 301.27L397.71 298.35L389.86 298.35Q389.34 298.35 388.96 298.12Q388.58 297.88 388.58 297.28L388.58 297.28Q388.58 296.65 388.95 296.42Q389.32 296.19 389.86 296.19L389.86 296.19L397.71 296.19L397.71 293.53L389.92 293.92Q389.34 293.95 388.90 293.69Q388.47 293.43 388.47 292.80L388.47 292.80Q388.47 292.33 388.77 292.11Q389.07 291.89 389.48 291.83Q389.89 291.76 390.22 291.76L390.22 291.76L393.44 291.73L395.14 288.15L390.93 288.15Q390.41 288.15 390.09 287.92Q389.78 287.68 389.78 287.14L389.78 287.14Q389.78 286.59 390.09 286.36Q390.41 286.12 390.93 286.12L390.93 286.12L407.09 286.12Q407.61 286.12 407.92 286.36Q408.24 286.59 408.24 287.14L408.24 287.14Q408.24 287.68 407.92 287.92Q407.61 288.15 407.09 288.15L407.09 288.15L397.74 288.15Q397.68 288.34 397.41 288.83Q397.14 289.32 396.81 289.88Q396.48 290.45 396.18 290.94Q395.88 291.43 395.74 291.68L395.74 291.68L404.63 291.43Q404.49 291.29 403.98 290.95Q403.48 290.61 403.03 290.21Q402.58 289.82 402.58 289.54L402.58 289.54Q402.58 289.08 402.89 288.90Q403.21 288.72 403.62 288.72L403.62 288.72Q403.78 288.72 404.48 289.11Q405.17 289.49 406.12 290.08Q407.06 290.66 407.98 291.32Q408.89 291.98 409.49 292.56Q410.10 293.15 410.10 293.48L410.10 293.48Q410.10 294.57 408.92 294.57L408.92 294.57Q408.65 294.57 408.18 294.26Q407.72 293.95 407.28 293.56Q406.84 293.18 406.65 293.02L406.65 293.02Q405.01 293.21 403.34 293.26Q401.67 293.32 400.03 293.43L400.03 293.43L400.03 296.19L408.13 296.19Q408.67 296.19 409.04 296.42Q409.41 296.65 409.41 297.28L409.41 297.28Q409.41 297.88 409.04 298.12Q408.67 298.35 408.13 298.35L408.13 298.35L400.03 298.35L400.03 301.27L410.29 301.27Q410.86 301.27 411.26 301.52Q411.65 301.77 411.65 302.39L411.65 302.39Q411.65 303.02 411.24 303.26Q410.83 303.49 410.29 303.49L410.29 303.49Z" data-element="slogan" data-text-path="" data-text="空間資訊實驗室" data-font-family="JP Kosugi Maru" fill="#000000" fill-opacity="1"></path></g></g></svg>